  0
SECTION
  2
HEADER
  9
$ACADVER
  1
AC1003
  9
$EXTMIN
 10
0.895089793668755
 20
5.48563806470663
  9
$EXTMAX
 10
5.28320160645729
 20
0.719559374542839
  9
$INSUNITS
 70
1
  9
$INSBASE
 10
3.08914570006302
 20
3.10259871962473
999
Created with OMAX LAYOUT for Windows. (www.omax.com) 3/23/2021
  0
ENDSEC
  0
SECTION
  2
TABLES
  0
TABLE
  2
LAYER
 70
    10
  0
LAYER
  2
0
 70
     0
 62
     7
  6
CONTINUOUS
  0
LAYER
  2
1
 70
     0
 62
     7
  6
CONTINUOUS
  0
LAYER
  2
2
 70
     0
 62
     7
  6
CONTINUOUS
  0
LAYER
  2
3
 70
     0
 62
     7
  6
CONTINUOUS
  0
LAYER
  2
4
 70
     0
 62
     7
  6
CONTINUOUS
  0
LAYER
  2
5
 70
     0
 62
     7
  6
CONTINUOUS
  0
LAYER
  2
6
 70
     0
 62
     7
  6
CONTINUOUS
  0
LAYER
  2
7
 70
     0
 62
     7
  6
CONTINUOUS
  0
LAYER
  2
8
 70
     0
 62
     7
  6
CONTINUOUS
  0
LAYER
  2
9
 70
     0
 62
     7
  6
CONTINUOUS
  0
LAYER
  2
10
 70
     0
 62
     7
  6
CONTINUOUS
  0
LAYER
  2
11
 70
     0
 62
     7
  6
CONTINUOUS
  0
LAYER
  2
12
 70
     0
 62
     7
  6
CONTINUOUS
  0
LAYER
  2
13
 70
     0
 62
     7
  6
CONTINUOUS
  0
LAYER
  2
14
 70
     0
 62
     7
  6
CONTINUOUS
  0
LAYER
  2
15
 70
     0
 62
     7
  6
CONTINUOUS
  0
LAYER
  2
16
 70
     0
 62
     7
  6
CONTINUOUS
  0
LAYER
  2
17
 70
     0
 62
     7
  6
CONTINUOUS
  0
LAYER
  2
18
 70
     0
 62
     7
  6
CONTINUOUS
  0
LAYER
  2
19
 70
     0
 62
     7
  6
CONTINUOUS
  0
LAYER
  2
20
 70
     0
 62
     7
  6
CONTINUOUS
  0
LAYER
  2
21
 70
     0
 62
     7
  6
CONTINUOUS
  0
LAYER
  2
22
 70
     0
 62
     7
  6
CONTINUOUS
  0
LAYER
  2
23
 70
     0
 62
     7
  6
CONTINUOUS
  0
LAYER
  2
24
 70
     0
 62
     7
  6
CONTINUOUS
  0
LAYER
  2
25
 70
     0
 62
     7
  6
CONTINUOUS
  0
LAYER
  2
26
 70
     0
 62
     7
  6
CONTINUOUS
  0
LAYER
  2
27
 70
     0
 62
     7
  6
CONTINUOUS
  0
LAYER
  2
28
 70
     0
 62
     7
  6
CONTINUOUS
  0
LAYER
  2
29
 70
     0
 62
     7
  6
CONTINUOUS
  0
LAYER
  2
30
 70
     0
 62
     7
  6
CONTINUOUS
  0
LAYER
  2
31
 70
     0
 62
     7
  6
CONTINUOUS
  0
ENDTAB
  0
ENDSEC
  0
SECTION
  2
ENTITIES
  0
LINE
  8
0
  6
CONTINUOUS
 62
0
 10
0.895089793668755
 20
0.720146962654351
 30
0.0
 11
3.51940025881252
 21
1.77991600472488
 31
0.0
  0
LINE
  8
0
  6
CONTINUOUS
 62
0
 10
3.52511027704046
 20
1.749039908113
 30
0.0
 11
3.56420315087484
 21
1.4133877590051
 31
0.0
  0
LINE
  8
0
  6
CONTINUOUS
 62
0
 10
3.58458622002225
 20
1.38950328408348
 30
0.0
 11
3.7742602585303
 21
1.10971617994327
 31
0.0
  0
LINE
  8
0
  6
CONTINUOUS
 62
0
 10
3.80385475167986
 20
1.0992231524788
 30
0.0
 11
4.10048272773883
 21
0.938618188536152
 31
0.0
  0
LINE
  8
0
  6
CONTINUOUS
 62
0
 10
4.13178460833652
 20
0.936142320769524
 30
0.0
 11
4.47192356057327
 21
0.940451247565011
 31
0.0
  0
LINE
  8
0
  6
CONTINUOUS
 62
0
 10
4.48144266526764
 20
0.970373217686765
 30
0.0
 11
4.59203946946163
 21
1.37121079263301
 31
0.0
  0
LINE
  8
0
  6
CONTINUOUS
 62
0
 10
4.66885155960237
 20
1.30673612833117
 30
0.0
 11
4.79668841945519
 21
1.11036996372262
 31
0.0
  0
LINE
  8
0
  6
CONTINUOUS
 62
0
 10
4.81448352413635
 20
1.13624025362313
 30
0.0
 11
5.00630448516601
 21
1.41437996617141
 31
0.0
  0
LINE
  8
0
  6
CONTINUOUS
 62
0
 10
5.00878035293264
 20
1.44568184676909
 30
0.0
 11
5.05055621200667
 21
1.7809807741692
 31
0.0
  0
LINE
  8
0
  6
CONTINUOUS
 62
0
 10
5.03704943609014
 20
1.80932693183633
 30
0.0
 11
4.91930761167245
 21
2.12611757006493
 31
0.0
  0
LINE
  8
0
  6
CONTINUOUS
 62
0
 10
4.89343732177194
 20
2.14391267474609
 30
0.0
 11
4.64266299355438
 21
2.37066296814583
 31
0.0
  0
LINE
  8
0
  6
CONTINUOUS
 62
0
 10
4.61136111295669
 20
2.37313883591245
 30
0.0
 11
4.28373314894558
 21
2.45844727475526
 31
0.0
  0
LINE
  8
0
  6
CONTINUOUS
 62
0
 10
4.25684738132533
 20
2.44222712834348
 30
0.0
 11
3.92644144965521
 21
2.37025198248086
 31
0.0
  0
LINE
  8
0
  6
CONTINUOUS
 62
0
 10
3.90255697473359
 20
2.34986891333345
 30
0.0
 11
3.65450936894861
 21
2.12685758976282
 31
0.0
  0
LINE
  8
0
  6
CONTINUOUS
 62
0
 10
3.62379844587059
 20
2.13339799142063
 30
0.0
 11
3.31665723593032
 21
2.23900076283685
 31
0.0
  0
LINE
  8
0
  6
CONTINUOUS
 62
0
 10
3.40753928861679
 20
2.19660345126976
 30
0.0
 11
1.85982652684635
 21
2.45528905554647
 31
0.0
  0
LINE
  8
0
  6
CONTINUOUS
 62
0
 10
1.83065767507074
 20
2.44366512607997
 30
0.0
 11
1.50028834185058
 21
2.36405950755376
 31
0.0
  0
LINE
  8
0
  6
CONTINUOUS
 62
0
 10
1.50396674115376
 20
2.33287606597468
 30
0.0
 11
1.48220983454087
 21
1.91013960224263
 31
0.0
  0
LINE
  8
0
  6
CONTINUOUS
 62
0
 10
1.39132778185478
 20
1.95253691381055
 30
0.0
 11
1.22534348282907
 21
2.12107800772577
 31
0.0
  0
LINE
  8
0
  6
CONTINUOUS
 62
0
 10
1.22286761506068
 20
2.08977612712822
 30
0.0
 11
1.09502530070331
 21
1.7759002984498
 31
0.0
  0
LINE
  8
0
  6
CONTINUOUS
 62
0
 10
1.10664923016191
 20
1.74673144667104
 30
0.0
 11
1.13987158852966
 21
1.40986560726574
 31
0.0
  0
LINE
  8
0
  6
CONTINUOUS
 62
0
 10
1.16177313536187
 20
1.38736538734446
 30
0.0
 11
1.35022093888185
 21
1.10619234114623
 31
0.0
  0
LINE
  8
0
  6
CONTINUOUS
 62
0
 10
1.38093186195973
 20
1.09965193948773
 30
0.0
 11
1.67670997038145
 21
0.93519168628281
 31
0.0
  0
LINE
  8
0
  6
CONTINUOUS
 62
0
 10
1.70789341196013
 20
0.938870085589365
 30
0.0
 11
2.04573877835855
 21
0.935487267679163
 31
0.0
  0
LINE
  8
0
  6
CONTINUOUS
 62
0
 10
2.07207944268629
 20
0.952578407281982
 30
0.0
 11
2.37282940710726
 21
1.10788655481379
 31
0.0
  0
LINE
  8
0
  6
CONTINUOUS
 62
0
 10
2.38234851180179
 20
1.1378085249355
 30
0.0
 11
2.58194764390885
 21
1.41185176399948
 31
0.0
  0
LINE
  8
0
  6
CONTINUOUS
 62
0
 10
2.57725092045896
 20
1.44289815572194
 30
0.0
 11
2.62623419201552
 21
1.77685673636766
 31
0.0
  0
LINE
  8
0
  6
CONTINUOUS
 62
0
 10
2.61951699343802
 20
1.80752947497085
 30
0.0
 11
2.49430546478613
 21
2.12321608102574
 31
0.0
  0
LINE
  8
0
  6
CONTINUOUS
 62
0
 10
2.4654606125492
 20
2.13562221457245
 30
0.0
 11
2.22051484093403
 21
2.36230986542403
 31
0.0
  0
LINE
  8
0
  6
CONTINUOUS
 62
0
 10
2.23003394562857
 20
2.39223183554573
 30
0.0
 11
2.41213629117243
 21
2.65251739294071
 31
0.0
  0
LINE
  8
0
  6
CONTINUOUS
 62
0
 10
2.36973897961369
 20
2.56163534025033
 30
0.0
 11
3.8082650815716
 21
3.84372476115379
 31
0.0
  0
LINE
  8
0
  6
CONTINUOUS
 62
0
 10
3.83897600464947
 20
3.83718435949529
 30
0.0
 11
4.1347541130712
 21
3.67272410629037
 31
0.0
  0
LINE
  8
0
  6
CONTINUOUS
 62
0
 10
4.16593755464988
 20
3.67640250559693
 30
0.0
 11
4.50565115419569
 21
3.67497126950507
 31
0.0
  0
LINE
  8
0
  6
CONTINUOUS
 62
0
 10
4.5121915558547
 20
3.70568219258284
 30
0.0
 11
4.62562582159712
 21
4.10541451003142
 31
0.0
  0
LINE
  8
0
  6
CONTINUOUS
 62
0
 10
4.70243791173785
 20
4.04093984572957
 30
0.0
 11
4.83087354979701
 21
3.84541897482136
 31
0.0
  0
LINE
  8
0
  6
CONTINUOUS
 62
0
 10
4.84039265449154
 20
3.87534094494306
 30
0.0
 11
5.0399917865986
 21
4.14938418400704
 31
0.0
  0
LINE
  8
0
  6
CONTINUOUS
 62
0
 10
5.03529506314871
 20
4.18043057572951
 30
0.0
 11
5.08427833470527
 21
4.51438915637522
 31
0.0
  0
LINE
  8
0
  6
CONTINUOUS
 62
0
 10
5.07756113612776
 20
4.54506189497842
 30
0.0
 11
4.95289396380794
 21
4.86032128746334
 31
0.0
  0
LINE
  8
0
  6
CONTINUOUS
 62
0
 10
4.92702367390743
 20
4.87811639214449
 30
0.0
 11
4.67602329967347
 21
5.10491421791132
 31
0.0
  0
LINE
  8
0
  6
CONTINUOUS
 62
0
 10
4.64462650930541
 20
5.10533754371246
 30
0.0
 11
4.31809769867347
 21
5.19286406543824
 31
0.0
  0
LINE
  8
0
  6
CONTINUOUS
 62
0
 10
4.28823105828727
 20
5.18317275787984
 30
0.0
 11
3.95915496198822
 21
5.10370692480454
 31
0.0
  0
LINE
  8
0
  6
CONTINUOUS
 62
0
 10
3.94308995590401
 20
5.07672816965046
 30
0.0
 11
3.68338762551882
 21
4.85861042773334
 31
0.0
  0
LINE
  8
0
  6
CONTINUOUS
 62
0
 10
3.68091175775043
 20
4.82730854713579
 30
0.0
 11
3.55306944339306
 21
4.51343271845737
 31
0.0
  0
LINE
  8
0
  6
CONTINUOUS
 62
0
 10
3.56469337285165
 20
4.48426386667861
 30
0.0
 11
3.60096121850494
 21
4.15294921756847
 31
0.0
  0
LINE
  8
0
  6
CONTINUOUS
 62
0
 10
3.56977777692617
 20
4.14927081826261
 30
0.0
 11
3.24387702668041
 21
4.12690456221022
 31
0.0
  0
LINE
  8
0
  6
CONTINUOUS
 62
0
 10
3.33811976893365
 20
4.1611884514472
 30
0.0
 11
1.42358699364244
 21
4.44126928710272
 31
0.0
  0
LINE
  8
0
  6
CONTINUOUS
 62
0
 10
1.32339817657901
 20
4.44566023962508
 30
0.0
 11
1.09400865642719
 21
4.46972124996412
 31
0.0
  0
LINE
  8
0
  6
CONTINUOUS
 62
0
 10
1.09971867465513
 20
4.43884515335224
 30
0.0
 11
1.13881154848952
 21
4.10319300424434
 31
0.0
  0
LINE
  8
0
  6
CONTINUOUS
 62
0
 10
1.15919461763693
 20
4.07930852932272
 30
0.0
 11
1.34886865614497
 21
3.79952142518251
 31
0.0
  0
LINE
  8
0
  6
CONTINUOUS
 62
0
 10
1.37846314929453
 20
3.78902839771804
 30
0.0
 11
1.6750911253535
 21
3.62842343377539
 31
0.0
  0
LINE
  8
0
  6
CONTINUOUS
 62
0
 10
1.70639300595119
 20
3.62594756600876
 30
0.0
 11
2.04469849170618
 21
3.62857643031202
 31
0.0
  0
LINE
  8
0
  6
CONTINUOUS
 62
0
 10
2.07158425932703
 20
3.6447965767228
 30
0.0
 11
2.37129681706986
 21
3.80017520896187
 31
0.0
  0
LINE
  8
0
  6
CONTINUOUS
 62
0
 10
2.38909192175102
 20
3.82604549886237
 30
0.0
 11
2.58091288278068
 21
4.10418521141065
 31
0.0
  0
LINE
  8
0
  6
CONTINUOUS
 62
0
 10
2.58338875054731
 20
4.13548709200833
 30
0.0
 11
2.62516460962134
 21
4.47078601940844
 31
0.0
  0
LINE
  8
0
  6
CONTINUOUS
 62
0
 10
2.61165783370481
 20
4.49913217707558
 30
0.0
 11
2.49391600928712
 21
4.81592281530417
 31
0.0
  0
LINE
  8
0
  6
CONTINUOUS
 62
0
 10
2.46804571938661
 20
4.83371791998533
 30
0.0
 11
2.21727139116905
 21
5.06046821338507
 31
0.0
  0
LINE
  8
0
  6
CONTINUOUS
 62
0
 10
2.18596951057136
 20
5.0629440811517
 30
0.0
 11
1.85834154656025
 21
5.1482525199945
 31
0.0
  0
LINE
  8
0
  6
CONTINUOUS
 62
0
 10
1.83145577894
 20
5.13203237358273
 30
0.0
 11
1.50033119470859
 21
5.0594804480608
 31
0.0
  0
LINE
  8
0
  6
CONTINUOUS
 62
0
 10
1.48253609002744
 20
5.03361015816029
 30
0.0
 11
1.2307299162533
 21
4.81539761187259
 31
0.0
  0
LINE
  8
0
  6
CONTINUOUS
 62
0
 10
1.20882836942154
 20
4.83789783179431
 30
0.0
 11
1.06701330578026
 21
5.16065059916412
 31
0.0
  0
LINE
  8
0
  6
CONTINUOUS
 62
0
 10
1.14382539592227
 20
5.09617593486379
 30
0.0
 11
0.895089793668755
 21
5.48563806470663
 31
0.0
  0
ARC
  8
3
  6
CONTINUOUS
 62
3
 10
3.52292930767553
 20
1.77999300884237
 30
0.0
 40
0.0809055118084629
 50
269.999999997636
 51
15.0000000023629
  0
ARC
  8
3
  6
CONTINUOUS
 62
3
 10
3.52292930767172
 20
1.77999300884856
 30
0.0
 40
0.080905511810545
 50
14.9999999974274
 51
180.000000002572
  0
ARC
  8
3
  6
CONTINUOUS
 62
3
 10
3.52292930766674
 20
1.77999300883948
 30
0.0
 40
0.0809055118055746
 50
179.999999996141
 51
270.000000003858
  0
ARC
  8
3
  6
CONTINUOUS
 62
3
 10
3.56722089478213
 20
1.41521897096007
 30
0.0
 40
0.0809055118100499
 50
299.999999997427
 51
90.0000000025724
  0
ARC
  8
3
  6
CONTINUOUS
 62
3
 10
3.56722089477305
 20
1.41521897096455
 30
0.0
 40
0.0809055118055746
 50
89.9999999961411
 51
180.000000003859
  0
ARC
  8
3
  6
CONTINUOUS
 62
3
 10
3.5672208947764
 20
1.41521897095547
 30
0.0
 40
0.0809055118089261
 50
179.999999997427
 51
300.000000002572
  0
ARC
  8
3
  6
CONTINUOUS
 62
3
 10
3.7759580954459
 20
1.1128109279769
 30
0.0
 40
0.0809055118073909
 50
329.999999990399
 51
120.0000000096
  0
ARC
  8
3
  6
CONTINUOUS
 62
3
 10
3.77595809542968
 20
1.11281092797061
 30
0.0
 40
0.0809055118047316
 50
119.999999997427
 51
180.000000002572
  0
ARC
  8
3
  6
CONTINUOUS
 62
3
 10
3.775958095435
 20
1.11281092796334
 30
0.0
 40
0.0809055118100501
 50
179.999999997427
 51
330.000000002572
  0
ARC
  8
3
  6
CONTINUOUS
 62
3
 10
4.10132173253204
 20
0.942046918118081
 30
0.0
 40
0.0809055118091433
 50
344.999999989884
 51
150.000000010115
  0
ARC
  8
3
  6
CONTINUOUS
 62
3
 10
4.10132173251297
 20
0.942046918108403
 30
0.0
 40
0.080905511797467
 50
149.999999997428
 51
180.000000002573
  0
ARC
  8
3
  6
CONTINUOUS
 62
3
 10
4.10132173252605
 20
0.942046918101136
 30
0.0
 40
0.0809055118105453
 50
179.999999997427
 51
345.000000002572
  0
ARC
  8
3
  6
CONTINUOUS
 62
3
 10
4.46877491784459
 20
0.942046918119072
 30
0.0
 40
0.0809055118062554
 50
61.8749999925188
 51
180.000000010129
  0
ARC
  8
3
  6
CONTINUOUS
 62
3
 10
4.46877491784936
 20
0.942046918104769
 30
0.0
 40
0.0809055118110233
 50
179.999999999999
 51
359.999999999999
  0
ARC
  8
3
  6
CONTINUOUS
 62
3
 10
4.4687749178569
 20
0.942046918115637
 30
0.0
 40
0.0809055118034848
 50
359.999999992304
 51
61.8750000013521
  0
ARC
  8
3
  6
CONTINUOUS
 62
3
 10
4.28504832531597
 20
1.68745500623285
 30
0.0
 40
0.59055118097434
 50
314.999999994854
 51
5.14469986389195E-9
  0
ARC
  8
3
  6
CONTINUOUS
 62
3
 10
4.28504832518794
 20
1.68745500628588
 30
0.0
 40
0.590551181102364
 50
359.999999999999
 51
180
  0
ARC
  8
3
  6
CONTINUOUS
 62
3
 10
4.28504832517696
 20
1.68745500625935
 30
0.0
 40
0.590551181091381
 50
179.999999997427
 51
315.000000002572
  0
ARC
  8
3
  6
CONTINUOUS
 62
3
 10
4.7941385549376
 20
1.11281092796999
 30
0.0
 40
0.0809055118105274
 50
44.9999999973327
 51
210.000000002667
  0
ARC
  8
3
  6
CONTINUOUS
 62
3
 10
4.79413855494186
 20
1.11281092795971
 30
0.0
 40
0.0809055118090766
 50
209.999999994855
 51
5.14469986389195E-9
  0
ARC
  8
3
  6
CONTINUOUS
 62
3
 10
4.79413855495745
 20
1.11281092797424
 30
0.0
 40
0.0809055117934841
 50
359.999999994854
 51
45.0000000051447
  0
ARC
  8
3
  6
CONTINUOUS
 62
3
 10
5.00287575559373
 20
1.41521897096122
 30
0.0
 40
0.0809055118099287
 50
74.9999999971063
 51
225.000000002893
  0
ARC
  8
3
  6
CONTINUOUS
 62
3
 10
5.0028757556004
 20
1.41521897095183
 30
0.0
 40
0.0809055118080141
 50
224.999999994855
 51
5.14475075276685E-9
  0
ARC
  8
3
  6
CONTINUOUS
 62
3
 10
5.00287575560686
 20
1.41521897096637
 30
0.0
 40
0.0809055118015555
 50
359.999999994854
 51
75.0000000051445
  0
ARC
  8
3
  6
CONTINUOUS
 62
3
 10
5.04716734269896
 20
1.77999300884493
 30
0.0
 40
0.0809055118097982
 50
104.999999996762
 51
255.000000003238
  0
ARC
  8
3
  6
CONTINUOUS
 62
3
 10
5.04716734270927
 20
1.77999300883766
 30
0.0
 40
0.0809055118054488
 50
254.999999994854
 51
5.14476347498558E-9
  0
ARC
  8
3
  6
CONTINUOUS
 62
3
 10
5.04716734270927
 20
1.77999300885219
 30
0.0
 40
0.0809055118054488
 50
359.999999994855
 51
105.000000005145
  0
ARC
  8
3
  6
CONTINUOUS
 62
3
 10
4.9168666474231
 20
2.12356770554676
 30
0.0
 40
0.0809055118095277
 50
134.999999996047
 51
285.000000003953
  0
ARC
  8
3
  6
CONTINUOUS
 62
3
 10
4.91686664743757
 20
2.12356770554239
 30
0.0
 40
0.0809055118015554
 50
284.999999994855
 51
5.14469350278259E-9
  0
ARC
  8
3
  6
CONTINUOUS
 62
3
 10
4.91686664743111
 20
2.12356770555692
 30
0.0
 40
0.0809055118080141
 50
359.999999994854
 51
135.000000005145
  0
ARC
  8
3
  6
CONTINUOUS
 62
3
 10
4.64182398876136
 20
2.36723423856799
 30
0.0
 40
0.0809055118082673
 50
164.999999992715
 51
315.000000007284
  0
ARC
  8
3
  6
CONTINUOUS
 62
3
 10
4.64182398878422
 20
2.36723423856994
 30
0.0
 40
0.0809055117934841
 50
314.999999994855
 51
5.14476347498558E-9
  0
ARC
  8
3
  6
CONTINUOUS
 62
3
 10
4.64182398876764
 20
2.36723423858447
 30
0.0
 40
0.080905511810067
 50
359.999999994854
 51
165.000000005145
  0
ARC
  8
3
  6
CONTINUOUS
 62
3
 10
4.28504832518837
 20
2.45517154171378
 30
0.0
 40
0.0809055118105983
 50
200.624999996261
 51
3.65196377413131E-9
  0
ARC
  8
3
  6
CONTINUOUS
 62
3
 10
4.28504832518794
 20
2.45517154171894
 30
0.0
 40
0.0809055118110256
 50
359.999999999999
 51
180
  0
ARC
  8
3
  6
CONTINUOUS
 62
3
 10
4.28504832517428
 20
2.45517154171365
 30
0.0
 40
0.0809055117973641
 50
179.99999999625
 51
200.624999999685
  0
ARC
  8
3
  6
CONTINUOUS
 62
3
 10
3.92827266161206
 20
2.36723423857032
 30
0.0
 40
0.0809055118100498
 50
209.999999994763
 51
15.0000000052357
  0
ARC
  8
3
  6
CONTINUOUS
 62
3
 10
3.92827266160872
 20
2.36723423858084
 30
0.0
 40
0.080905511810545
 50
14.9999999974272
 51
180.000000002572
  0
ARC
  8
3
  6
CONTINUOUS
 62
3
 10
3.92827266159565
 20
2.36723423857357
 30
0.0
 40
0.0809055117974661
 50
179.999999997427
 51
210.000000002572
  0
ARC
  8
3
  6
CONTINUOUS
 62
3
 10
3.65323000293362
 20
2.12356770555223
 30
0.0
 40
0.0809055117968565
 50
157.499999997794
 51
180.000000001825
  0
ARC
  8
3
  6
CONTINUOUS
 62
3
 10
3.65323000294779
 20
2.12356770554965
 30
0.0
 40
0.0809055118110251
 50
179.999999999999
 51
359.999999999999
  0
ARC
  8
3
  6
CONTINUOUS
 62
3
 10
3.6532300029493
 20
2.123567705557
 30
0.0
 40
0.0809055118095149
 50
359.999999994793
 51
157.500000005167
  0
ARC
  8
3
  6
CONTINUOUS
 62
3
 10
4.28504832518794
 20
1.68745500628586
 30
0.0
 40
0.96456692913386
 50
359.999999999999
 51
150
  0
ARC
  8
3
  6
CONTINUOUS
 62
3
 10
4.28504832518794
 20
1.68745500628587
 30
0.0
 40
0.96456692913386
 50
180
 51
1.53511459547513E-13
  0
ARC
  8
3
  6
CONTINUOUS
 62
3
 10
4.28504832534957
 20
1.68745500624256
 30
0.0
 40
0.964566929295484
 50
150.000000002572
 51
179.999999997427
  0
ARC
  8
3
  6
CONTINUOUS
 62
3
 10
1.86059053463828
 20
2.45184283908031
 30
0.0
 40
0.0809055118064313
 50
191.24999997881
 51
2.08710797085756E-8
  0
ARC
  8
3
  6
CONTINUOUS
 62
3
 10
1.86059053463368
 20
2.45184283910978
 30
0.0
 40
0.0809055118110251
 50
359.999999999999
 51
180
  0
ARC
  8
3
  6
CONTINUOUS
 62
3
 10
1.86059053449467
 20
2.45184283911325
 30
0.0
 40
0.0809055116720074
 50
180.000000002462
 51
191.250000021537
  0
ARC
  8
3
  6
CONTINUOUS
 62
3
 10
1.50381487106018
 20
2.36390553595788
 30
0.0
 40
0.0809055118057885
 50
266.249999995797
 51
7.20118290983263E-9
  0
ARC
  8
3
  6
CONTINUOUS
 62
3
 10
1.50381487105494
 20
2.36390553596805
 30
0.0
 40
0.0809055118110233
 50
359.999999999999
 51
180
  0
ARC
  8
3
  6
CONTINUOUS
 62
3
 10
1.50381487104819
 20
2.36390553595714
 30
0.0
 40
0.0809055118042742
 50
179.99999999228
 51
266.250000004232
  0
ARC
  8
3
  6
CONTINUOUS
 62
3
 10
1.86059053453984
 20
1.68412630366435
 30
0.0
 40
0.590551181027275
 50
149.999999994409
 51
225.000000005589
  0
ARC
  8
3
  6
CONTINUOUS
 62
3
 10
1.86059053465565
 20
1.68412630362367
 30
0.0
 40
0.590551181080398
 50
224.999999994855
 51
5.14475075276685E-9
  0
ARC
  8
3
  6
CONTINUOUS
 62
3
 10
1.86059053464789
 20
1.68412630372974
 30
0.0
 40
0.590551181088154
 50
359.999999994855
 51
150.000000005145
  0
ARC
  8
3
  6
CONTINUOUS
 62
3
 10
1.22877221240016
 20
2.12023900293034
 30
0.0
 40
0.0809055118043919
 50
254.999999993678
 51
7.18401427566209E-9
  0
ARC
  8
3
  6
CONTINUOUS
 62
3
 10
1.22877221239353
 20
2.12023900294049
 30
0.0
 40
0.0809055118110251
 50
359.999999999999
 51
180
  0
ARC
  8
3
  6
CONTINUOUS
 62
3
 10
1.22877221238854
 20
2.12023900293516
 30
0.0
 40
0.080905511806035
 50
179.999999996225
 51
255.000000002512
  0
ARC
  8
3
  6
CONTINUOUS
 62
3
 10
1.09847151712781
 20
1.77666430622708
 30
0.0
 40
0.0809055118011484
 50
281.249999994252
 51
6.1498950876404E-9
  0
ARC
  8
3
  6
CONTINUOUS
 62
3
 10
1.09847151711793
 20
1.77666430623576
 30
0.0
 40
0.0809055118110233
 50
359.999999999999
 51
180
  0
ARC
  8
3
  6
CONTINUOUS
 62
3
 10
1.09847151711335
 20
1.7766643062296
 30
0.0
 40
0.0809055118064429
 50
179.999999995636
 51
281.250000003944
  0
ARC
  8
3
  6
CONTINUOUS
 62
3
 10
1.14276310423376
 20
1.41189026834681
 30
0.0
 40
0.0809055118014951
 50
303.749999994151
 51
2.21260693358968E-9
  0
ARC
  8
3
  6
CONTINUOUS
 62
3
 10
1.14276310422423
 20
1.41189026834994
 30
0.0
 40
0.0809055118110233
 50
359.999999999999
 51
180
  0
ARC
  8
3
  6
CONTINUOUS
 62
3
 10
1.14276310422035
 20
1.41189026834464
 30
0.0
 40
0.0809055118071415
 50
179.99999999625
 51
303.7500000029
  0
ARC
  8
3
  6
CONTINUOUS
 62
3
 10
1.35150030491857
 20
1.10948222534978
 30
0.0
 40
0.0809055117741678
 50
337.499999995222
 51
5.68404560455581E-9
  0
ARC
  8
3
  6
CONTINUOUS
 62
3
 10
1.35150030488172
 20
1.10948222535781
 30
0.0
 40
0.0809055118110233
 50
359.999999999999
 51
180
  0
ARC
  8
3
  6
CONTINUOUS
 62
3
 10
1.35150030488112
 20
1.1094822253541
 30
0.0
 40
0.0809055118104243
 50
179.999999997374
 51
337.500000002546
  0
ARC
  8
3
  6
CONTINUOUS
 62
3
 10
1.67686394208387
 20
0.938718215497284
 30
0.0
 40
0.0809055116994181
 50
356.249999993623
 51
359.999999998812
  0
ARC
  8
3
  6
CONTINUOUS
 62
3
 10
1.67686394197227
 20
0.938718215495608
 30
0.0
 40
0.0809055118110233
 50
359.999999999999
 51
180
  0
ARC
  8
3
  6
CONTINUOUS
 62
3
 10
1.67686394197197
 20
0.938718215491967
 30
0.0
 40
0.0809055118107297
 50
179.999999997422
 51
356.250000002563
  0
ARC
  8
3
  6
CONTINUOUS
 62
3
 10
2.04431712728687
 20
0.938718215535262
 30
0.0
 40
0.0809055118027979
 50
22.4999999717401
 51
180.000000028082
  0
ARC
  8
3
  6
CONTINUOUS
 62
3
 10
2.0443171272951
 20
0.938718215495606
 30
0.0
 40
0.0809055118110233
 50
179.999999999999
 51
359.999999999999
  0
ARC
  8
3
  6
CONTINUOUS
 62
3
 10
2.0443171273499
 20
0.938718215504811
 30
0.0
 40
0.0809055117562217
 50
359.999999993482
 51
22.5000000087446
  0
ARC
  8
3
  6
CONTINUOUS
 62
3
 10
2.36968076438322
 20
1.10948222536276
 30
0.0
 40
0.0809055118085895
 50
61.8749999968043
 51
180.000000003502
  0
ARC
  8
3
  6
CONTINUOUS
 62
3
 10
2.36968076438565
 20
1.10948222535781
 30
0.0
 40
0.0809055118110233
 50
179.999999999999
 51
359.999999999999
  0
ARC
  8
3
  6
CONTINUOUS
 62
3
 10
2.36968076440137
 20
1.10948222536812
 30
0.0
 40
0.080905511795306
 50
359.999999992702
 51
61.8750000063514
  0
ARC
  8
3
  6
CONTINUOUS
 62
3
 10
2.57841796503924
 20
1.41189026835436
 30
0.0
 40
0.0809055118071299
 50
88.124999997012
 51
180.000000003133
  0
ARC
  8
3
  6
CONTINUOUS
 62
3
 10
2.57841796504313
 20
1.41189026834994
 30
0.0
 40
0.0809055118110233
 50
179.999999999999
 51
359.999999999999
  0
ARC
  8
3
  6
CONTINUOUS
 62
3
 10
2.57841796505145
 20
1.41189026835839
 30
0.0
 40
0.0809055118027042
 50
359.999999994014
 51
88.1250000055628
  0
ARC
  8
3
  6
CONTINUOUS
 62
3
 10
2.62270955210648
 20
1.77666430627568
 30
0.0
 40
0.0809055117680694
 50
91.8749999700092
 51
180.000000028268
  0
ARC
  8
3
  6
CONTINUOUS
 62
3
 10
2.62270955214943
 20
1.77666430623576
 30
0.0
 40
0.0809055118110233
 50
179.999999999999
 51
359.999999999999
  0
ARC
  8
3
  6
CONTINUOUS
 62
3
 10
2.62270955216093
 20
1.77666430624599
 30
0.0
 40
0.0809055117995277
 50
359.999999992759
 51
91.8750000078607
  0
ARC
  8
3
  6
CONTINUOUS
 62
3
 10
2.4924088568642
 20
2.12023900294325
 30
0.0
 40
0.0809055118013775
 50
146.249999997723
 51
180.000000001958
  0
ARC
  8
3
  6
CONTINUOUS
 62
3
 10
2.49240885687384
 20
2.12023900294049
 30
0.0
 40
0.0809055118110233
 50
179.999999999999
 51
359.999999999999
  0
ARC
  8
3
  6
CONTINUOUS
 62
3
 10
2.49240885687616
 20
2.12023900294796
 30
0.0
 40
0.0809055118087071
 50
359.999999994706
 51
146.250000005203
  0
ARC
  8
3
  6
CONTINUOUS
 62
3
 10
2.21736619820999
 20
2.36390553597299
 30
0.0
 40
0.0809055118085895
 50
61.8749999968043
 51
180.000000003502
  0
ARC
  8
3
  6
CONTINUOUS
 62
3
 10
2.21736619821242
 20
2.36390553596804
 30
0.0
 40
0.0809055118110233
 50
179.999999999999
 51
359.999999999999
  0
ARC
  8
3
  6
CONTINUOUS
 62
3
 10
2.21736619822814
 20
2.36390553597835
 30
0.0
 40
0.0809055117953062
 50
359.999999992702
 51
61.8750000063514
  0
ARC
  8
3
  6
CONTINUOUS
 62
3
 10
1.86059053463367
 20
1.68412630367671
 30
0.0
 40
0.964566929133859
 50
359.999999999999
 51
59.9999999999998
  0
ARC
  8
3
  6
CONTINUOUS
 62
3
 10
1.86059053463368
 20
1.68412630367671
 30
0.0
 40
0.964566929133859
 50
180
 51
1.53511459547513E-13
  0
ARC
  8
3
  6
CONTINUOUS
 62
3
 10
1.86059053465869
 20
1.68412630363339
 30
0.0
 40
0.964566929158863
 50
60.0000000025723
 51
179.999999997427
  0
ARC
  8
3
  6
CONTINUOUS
 62
3
 10
3.80954444760832
 20
3.84701464535735
 30
0.0
 40
0.0809055117741685
 50
337.499999995222
 51
5.68409649343071E-9
  0
ARC
  8
3
  6
CONTINUOUS
 62
3
 10
3.80954444757146
 20
3.84701464536538
 30
0.0
 40
0.0809055118110233
 50
359.999999999999
 51
180
  0
ARC
  8
3
  6
CONTINUOUS
 62
3
 10
3.80954444757087
 20
3.84701464536167
 30
0.0
 40
0.0809055118104243
 50
179.999999997374
 51
337.500000002546
  0
ARC
  8
3
  6
CONTINUOUS
 62
3
 10
4.13490808477361
 20
3.67625063550485
 30
0.0
 40
0.0809055116994241
 50
356.249999993626
 51
359.999999998814
  0
ARC
  8
3
  6
CONTINUOUS
 62
3
 10
4.13490808466201
 20
3.67625063550317
 30
0.0
 40
0.0809055118110233
 50
359.999999999999
 51
180
  0
ARC
  8
3
  6
CONTINUOUS
 62
3
 10
4.13490808466172
 20
3.67625063549953
 30
0.0
 40
0.0809055118107299
 50
179.999999997424
 51
356.250000002561
  0
ARC
  8
3
  6
CONTINUOUS
 62
3
 10
4.50236126998274
 20
3.67625063550814
 30
0.0
 40
0.0809055118089177
 50
67.4999999972563
 51
180.000000003515
  0
ARC
  8
3
  6
CONTINUOUS
 62
3
 10
4.50236126998485
 20
3.67625063550317
 30
0.0
 40
0.0809055118110233
 50
179.999999999999
 51
359.999999999999
  0
ARC
  8
3
  6
CONTINUOUS
 62
3
 10
4.50236127000611
 20
3.67625063551919
 30
0.0
 40
0.0809055117897602
 50
359.999999988655
 51
67.5000000095495
  0
ARC
  8
3
  6
CONTINUOUS
 62
3
 10
4.31863467744242
 20
4.42165872369994
 30
0.0
 40
0.590551181029307
 50
314.999999990762
 51
60.000000009237
  0
ARC
  8
3
  6
CONTINUOUS
 62
3
 10
4.31863467730812
 20
4.42165872371079
 30
0.0
 40
0.590551181087055
 50
59.9999999974273
 51
180.000000002572
  0
ARC
  8
3
  6
CONTINUOUS
 62
3
 10
4.31863467731245
 20
4.42165872365775
 30
0.0
 40
0.59055118109138
 50
179.999999997427
 51
315.000000002572
  0
ARC
  8
3
  6
CONTINUOUS
 62
3
 10
4.82772490707296
 20
3.84701464537032
 30
0.0
 40
0.0809055118085895
 50
61.8749999968042
 51
180.000000003502
  0
ARC
  8
3
  6
CONTINUOUS
 62
3
 10
4.8277249070754
 20
3.84701464536537
 30
0.0
 40
0.0809055118110233
 50
179.999999999999
 51
359.999999999999
  0
ARC
  8
3
  6
CONTINUOUS
 62
3
 10
4.82772490709112
 20
3.84701464537568
 30
0.0
 40
0.0809055117953066
 50
359.999999992702
 51
61.8750000063512
  0
ARC
  8
3
  6
CONTINUOUS
 62
3
 10
5.03646210772899
 20
4.14942268836193
 30
0.0
 40
0.0809055118071297
 50
88.1249999970116
 51
180.000000003133
  0
ARC
  8
3
  6
CONTINUOUS
 62
3
 10
5.03646210773288
 20
4.1494226883575
 30
0.0
 40
0.0809055118110233
 50
179.999999999999
 51
359.999999999999
  0
ARC
  8
3
  6
CONTINUOUS
 62
3
 10
5.0364621077412
 20
4.14942268836595
 30
0.0
 40
0.080905511802704
 50
359.999999994014
 51
88.1250000055626
  0
ARC
  8
3
  6
CONTINUOUS
 62
3
 10
5.08075369479623
 20
4.51419672628325
 30
0.0
 40
0.0809055117680711
 50
91.8749999700107
 51
180.000000028268
  0
ARC
  8
3
  6
CONTINUOUS
 62
3
 10
5.08075369483918
 20
4.51419672624333
 30
0.0
 40
0.0809055118110233
 50
179.999999999999
 51
359.999999999999
  0
ARC
  8
3
  6
CONTINUOUS
 62
3
 10
5.08075369485068
 20
4.51419672625355
 30
0.0
 40
0.0809055117995284
 50
359.999999992758
 51
91.8750000078605
  0
ARC
  8
3
  6
CONTINUOUS
 62
3
 10
4.9504529995545
 20
4.85777142295049
 30
0.0
 40
0.0809055118028733
 50
134.999999996667
 51
195.000000003332
  0
ARC
  8
3
  6
CONTINUOUS
 62
3
 10
4.95045299956455
 20
4.85777142294079
 30
0.0
 40
0.0809055118100671
 50
194.999999994855
 51
5.14475075276685E-9
  0
ARC
  8
3
  6
CONTINUOUS
 62
3
 10
4.9504529995666
 20
4.85777142295532
 30
0.0
 40
0.0809055118080141
 50
359.999999994854
 51
135.000000005145
  0
ARC
  8
3
  6
CONTINUOUS
 62
3
 10
4.67541034087427
 20
5.10143795597807
 30
0.0
 40
0.0809055117831225
 50
168.74999999784
 51
180.000000001743
  0
ARC
  8
3
  6
CONTINUOUS
 62
3
 10
4.67541034090217
 20
5.10143795597561
 30
0.0
 40
0.0809055118110233
 50
179.999999999999
 51
359.999999999999
  0
ARC
  8
3
  6
CONTINUOUS
 62
3
 10
4.67541034090292
 20
5.1014379559829
 30
0.0
 40
0.0809055118102776
 50
359.99999999484
 51
168.750000005149
  0
ARC
  8
3
  6
CONTINUOUS
 62
3
 10
4.31863467732531
 20
5.18937525910485
 30
0.0
 40
0.0809055118091455
 50
187.499999990945
 51
8.84673829092822E-9
  0
ARC
  8
3
  6
CONTINUOUS
 62
3
 10
4.31863467732343
 20
5.18937525911734
 30
0.0
 40
0.0809055118110251
 50
359.999999999999
 51
180
  0
ARC
  8
3
  6
CONTINUOUS
 62
3
 10
4.31863467712959
 20
5.18937525912082
 30
0.0
 40
0.0809055116171853
 50
180.000000002464
 51
187.500000020251
  0
ARC
  8
3
  6
CONTINUOUS
 62
3
 10
3.96185901374823
 20
5.101437955965
 30
0.0
 40
0.0809055118074858
 50
228.749999993535
 51
7.51196126886779E-9
  0
ARC
  8
3
  6
CONTINUOUS
 62
3
 10
3.96185901374469
 20
5.10143795597561
 30
0.0
 40
0.0809055118110233
 50
359.999999999999
 51
180
  0
ARC
  8
3
  6
CONTINUOUS
 62
3
 10
3.96185901373313
 20
5.10143795596757
 30
0.0
 40
0.0809055117994626
 50
179.999999994307
 51
228.750000002774
  0
ARC
  8
3
  6
CONTINUOUS
 62
3
 10
3.68681635508991
 20
4.85777142293791
 30
0.0
 40
0.0809055118043916
 50
254.999999993678
 51
7.18391249791228E-9
  0
ARC
  8
3
  6
CONTINUOUS
 62
3
 10
3.68681635508327
 20
4.85777142294805
 30
0.0
 40
0.0809055118110251
 50
359.999999999999
 51
180
  0
ARC
  8
3
  6
CONTINUOUS
 62
3
 10
3.68681635507828
 20
4.85777142294272
 30
0.0
 40
0.080905511806035
 50
179.999999996226
 51
255.000000002512
  0
ARC
  8
3
  6
CONTINUOUS
 62
3
 10
3.55651565981756
 20
4.51419672623464
 30
0.0
 40
0.0809055118011483
 50
281.249999994252
 51
6.14995233762467E-9
  0
ARC
  8
3
  6
CONTINUOUS
 62
3
 10
3.55651565980768
 20
4.51419672624333
 30
0.0
 40
0.0809055118110233
 50
359.999999999999
 51
180
  0
ARC
  8
3
  6
CONTINUOUS
 62
3
 10
3.5565156598031
 20
4.51419672623717
 30
0.0
 40
0.080905511806443
 50
179.999999995636
 51
281.250000003943
  0
ARC
  8
3
  6
CONTINUOUS
 62
3
 10
3.60080724688545
 20
4.14942268835038
 30
0.0
 40
0.0809055117824879
 50
176.249999993624
 51
179.999999994954
  0
ARC
  8
3
  6
CONTINUOUS
 62
3
 10
3.60080724691398
 20
4.1494226883575
 30
0.0
 40
0.0809055118110233
 50
179.999999999999
 51
359.999999999999
  0
ARC
  8
3
  6
CONTINUOUS
 62
3
 10
3.60080724691449
 20
4.14942268836478
 30
0.0
 40
0.0809055118105212
 50
359.999999994844
 51
176.250000005148
  0
ARC
  8
3
  6
CONTINUOUS
 62
3
 10
4.31863467765238
 20
4.42165872372758
 30
0.0
 40
0.96456692946281
 50
180.000000002572
 51
194.999999997427
  0
ARC
  8
3
  6
CONTINUOUS
 62
3
 10
4.31863467732343
 20
4.42165872368426
 30
0.0
 40
0.964566929133859
 50
359.999999999999
 51
180
  0
ARC
  8
3
  6
CONTINUOUS
 62
3
 10
4.31863467732343
 20
4.42165872368428
 30
0.0
 40
0.964566929133859
 50
195
 51
2.04400334450929E-13
  0
ARC
  8
3
  6
CONTINUOUS
 62
3
 10
1.85965672269011
 20
4.37726025147612
 30
0.0
 40
0.590551180989859
 50
172.499999993788
 51
179.999999995247
  0
ARC
  8
3
  6
CONTINUOUS
 62
3
 10
1.85965672280261
 20
4.37726025152511
 30
0.0
 40
0.590551181102363
 50
179.999999999999
 51
359.999999999999
  0
ARC
  8
3
  6
CONTINUOUS
 62
3
 10
1.85965672280981
 20
4.37726025157861
 30
0.0
 40
0.590551181095163
 50
359.99999999481
 51
172.500000005161
  0
ARC
  8
3
  6
CONTINUOUS
 62
3
 10
1.0975377052902
 20
4.46979825408161
 30
0.0
 40
0.0809055118084631
 50
269.999999997636
 51
15.0000000023629
  0
ARC
  8
3
  6
CONTINUOUS
 62
3
 10
1.09753770528639
 20
4.4697982540878
 30
0.0
 40
0.0809055118105452
 50
14.9999999974275
 51
180.000000002572
  0
ARC
  8
3
  6
CONTINUOUS
 62
3
 10
1.09753770528142
 20
4.46979825407872
 30
0.0
 40
0.0809055118055746
 50
179.999999996141
 51
270.000000003858
  0
ARC
  8
3
  6
CONTINUOUS
 62
3
 10
1.1418292923968
 20
4.10502421619931
 30
0.0
 40
0.0809055118100499
 50
299.999999997427
 51
90.0000000025724
  0
ARC
  8
3
  6
CONTINUOUS
 62
3
 10
1.14182929238772
 20
4.10502421620379
 30
0.0
 40
0.0809055118055746
 50
89.9999999961411
 51
180.000000003859
  0
ARC
  8
3
  6
CONTINUOUS
 62
3
 10
1.14182929239107
 20
4.10502421619471
 30
0.0
 40
0.080905511808926
 50
179.999999997427
 51
300.000000002572
  0
ARC
  8
3
  6
CONTINUOUS
 62
3
 10
1.35056649306057
 20
3.80261617321614
 30
0.0
 40
0.080905511807391
 50
329.999999990399
 51
120.0000000096
  0
ARC
  8
3
  6
CONTINUOUS
 62
3
 10
1.35056649304436
 20
3.80261617320985
 30
0.0
 40
0.0809055118047318
 50
119.999999997427
 51
180.000000002572
  0
ARC
  8
3
  6
CONTINUOUS
 62
3
 10
1.35056649304967
 20
3.80261617320258
 30
0.0
 40
0.08090551181005
 50
179.999999997427
 51
330.000000002572
  0
ARC
  8
3
  6
CONTINUOUS
 62
3
 10
1.67593013014671
 20
3.63185216335732
 30
0.0
 40
0.080905511809143
 50
344.999999989885
 51
150.000000010115
  0
ARC
  8
3
  6
CONTINUOUS
 62
3
 10
1.67593013012764
 20
3.63185216334764
 30
0.0
 40
0.0809055117974668
 50
149.999999997427
 51
180.000000002572
  0
ARC
  8
3
  6
CONTINUOUS
 62
3
 10
1.67593013014072
 20
3.63185216334038
 30
0.0
 40
0.0809055118105451
 50
179.999999997427
 51
345.000000002572
  0
ARC
  8
3
  6
CONTINUOUS
 62
3
 10
2.04338331546267
 20
3.63185216335846
 30
0.0
 40
0.0809055118096576
 50
20.6249999906853
 51
180.000000010233
  0
ARC
  8
3
  6
CONTINUOUS
 62
3
 10
2.04338331546403
 20
3.63185216334401
 30
0.0
 40
0.0809055118110233
 50
179.999999999999
 51
359.999999999999
  0
ARC
  8
3
  6
CONTINUOUS
 62
3
 10
2.04338331548559
 20
3.63185216335488
 30
0.0
 40
0.0809055117894635
 50
359.999999992304
 51
20.624999998779
  0
ARC
  8
3
  6
CONTINUOUS
 62
3
 10
2.36874695255227
 20
3.80261617320923
 30
0.0
 40
0.0809055118105279
 50
44.9999999973339
 51
210.000000002666
  0
ARC
  8
3
  6
CONTINUOUS
 62
3
 10
2.36874695255653
 20
3.80261617319895
 30
0.0
 40
0.0809055118090768
 50
209.999999994854
 51
5.14475075276685E-9
  0
ARC
  8
3
  6
CONTINUOUS
 62
3
 10
2.36874695257212
 20
3.80261617321348
 30
0.0
 40
0.0809055117934841
 50
359.999999994854
 51
45.0000000051447
  0
ARC
  8
3
  6
CONTINUOUS
 62
3
 10
2.5774841532084
 20
4.10502421620046
 30
0.0
 40
0.0809055118099287
 50
74.9999999971066
 51
225.000000002893
  0
ARC
  8
3
  6
CONTINUOUS
 62
3
 10
2.57748415321507
 20
4.10502421619108
 30
0.0
 40
0.0809055118080141
 50
224.999999994855
 51
5.14475075276685E-9
  0
ARC
  8
3
  6
CONTINUOUS
 62
3
 10
2.57748415322153
 20
4.10502421620561
 30
0.0
 40
0.0809055118015555
 50
359.999999994854
 51
75.0000000051448
  0
ARC
  8
3
  6
CONTINUOUS
 62
3
 10
2.62177574031363
 20
4.46979825408417
 30
0.0
 40
0.0809055118097984
 50
104.999999996762
 51
255.000000003238
  0
ARC
  8
3
  6
CONTINUOUS
 62
3
 10
2.62177574032394
 20
4.4697982540769
 30
0.0
 40
0.0809055118054488
 50
254.999999994855
 51
5.14481436386048E-9
  0
ARC
  8
3
  6
CONTINUOUS
 62
3
 10
2.62177574032394
 20
4.46979825409143
 30
0.0
 40
0.0809055118054488
 50
359.999999994854
 51
105.000000005145
  0
ARC
  8
3
  6
CONTINUOUS
 62
3
 10
2.49147504503777
 20
4.813372950786
 30
0.0
 40
0.080905511809528
 50
134.999999996047
 51
285.000000003952
  0
ARC
  8
3
  6
CONTINUOUS
 62
3
 10
2.49147504505224
 20
4.81337295078163
 30
0.0
 40
0.0809055118015555
 50
284.999999994854
 51
5.1448461694073E-9
  0
ARC
  8
3
  6
CONTINUOUS
 62
3
 10
2.49147504504578
 20
4.81337295079616
 30
0.0
 40
0.0809055118080141
 50
359.999999994854
 51
135.000000005145
  0
ARC
  8
3
  6
CONTINUOUS
 62
3
 10
2.21643238637603
 20
5.05703948380723
 30
0.0
 40
0.0809055118082667
 50
164.999999992714
 51
315.000000007285
  0
ARC
  8
3
  6
CONTINUOUS
 62
3
 10
2.21643238639889
 20
5.05703948380919
 30
0.0
 40
0.0809055117934841
 50
314.999999994855
 51
5.14476347498558E-9
  0
ARC
  8
3
  6
CONTINUOUS
 62
3
 10
2.21643238638231
 20
5.05703948382372
 30
0.0
 40
0.0809055118100668
 50
359.999999994855
 51
165.000000005145
  0
ARC
  8
3
  6
CONTINUOUS
 62
3
 10
1.85965672280304
 20
5.14497678695303
 30
0.0
 40
0.0809055118105978
 50
200.624999996262
 51
3.65145488538228E-9
  0
ARC
  8
3
  6
CONTINUOUS
 62
3
 10
1.85965672280261
 20
5.14497678695818
 30
0.0
 40
0.0809055118110251
 50
359.999999999999
 51
180
  0
ARC
  8
3
  6
CONTINUOUS
 62
3
 10
1.85965672278895
 20
5.14497678695289
 30
0.0
 40
0.0809055117973635
 50
179.999999996251
 51
200.624999999686
  0
ARC
  8
3
  6
CONTINUOUS
 62
3
 10
1.50288105922777
 20
5.0570394838097
 30
0.0
 40
0.0809055118090056
 50
224.999999994666
 51
15.000000005333
  0
ARC
  8
3
  6
CONTINUOUS
 62
3
 10
1.5028810592234
 20
5.05703948382008
 30
0.0
 40
0.0809055118105452
 50
14.9999999974275
 51
180.000000002572
  0
ARC
  8
3
  6
CONTINUOUS
 62
3
 10
1.50288105921511
 20
5.05703948381282
 30
0.0
 40
0.0809055118022537
 50
179.999999997427
 51
225.000000002572
  0
ARC
  8
3
  6
CONTINUOUS
 62
3
 10
1.22783840055646
 20
4.8133729507922
 30
0.0
 40
0.0809055118050323
 50
123.749999997532
 51
180.000000002344
  0
ARC
  8
3
  6
CONTINUOUS
 62
3
 10
1.22783840056246
 20
4.81337295078889
 30
0.0
 40
0.0809055118110251
 50
179.999999999999
 51
359.999999999999
  0
ARC
  8
3
  6
CONTINUOUS
 62
3
 10
1.22783840056667
 20
4.81337295079688
 30
0.0
 40
0.0809055118068104
 50
359.99999999434
 51
123.750000005384
  0
ARC
  8
3
  6
CONTINUOUS
 62
3
 10
1.85965672280261
 20
4.3772602515251
 30
0.0
 40
0.964566929133859
 50
359.999999999999
 51
135
  0
ARC
  8
3
  6
CONTINUOUS
 62
3
 10
1.85965672280261
 20
4.37726025152512
 30
0.0
 40
0.964566929133859
 50
180
 51
1.53511459547513E-13
  0
ARC
  8
3
  6
CONTINUOUS
 62
3
 10
1.85965672290717
 20
4.3772602514818
 30
0.0
 40
0.964566929238412
 50
135.000000002572
 51
179.999999997427
  0
LINE
  8
9
  6
CONTINUOUS
 62
9
 10
3.51940025881252
 20
1.77991600472488
 30
0.0
 11
3.52292930767219
 21
1.6990874970339
 31
0.0
  0
LINE
  8
9
  6
CONTINUOUS
 62
9
 10
3.52292930767219
 20
1.6990874970339
 30
0.0
 11
3.52511027704046
 21
1.749039908113
 31
0.0
  0
LINE
  8
9
  6
CONTINUOUS
 62
9
 10
3.56420315087484
 20
1.4133877590051
 30
0.0
 11
3.60767365068401
 21
1.34515274242457
 31
0.0
  0
LINE
  8
9
  6
CONTINUOUS
 62
9
 10
3.60767365068401
 20
1.34515274242457
 30
0.0
 11
3.58458622002225
 21
1.38950328408348
 31
0.0
  0
LINE
  8
9
  6
CONTINUOUS
 62
9
 10
3.7742602585303
 20
1.10971617994327
 30
0.0
 11
3.8460243239705
 21
1.07235817206146
 31
0.0
  0
LINE
  8
9
  6
CONTINUOUS
 62
9
 10
3.8460243239705
 20
1.07235817206146
 30
0.0
 11
3.80385475167986
 21
1.0992231524788
 31
0.0
  0
LINE
  8
9
  6
CONTINUOUS
 62
9
 10
4.10048272773883
 20
0.938618188536152
 30
0.0
 11
4.17947045587393
 21
0.92110703079431
 31
0.0
  0
LINE
  8
9
  6
CONTINUOUS
 62
9
 10
4.17947045587393
 20
0.92110703079431
 30
0.0
 11
4.13178460833652
 21
0.936142320769524
 31
0.0
  0
LINE
  8
9
  6
CONTINUOUS
 62
9
 10
4.47192356057327
 20
0.940451247565011
 30
0.0
 11
4.50691351211062
 21
1.01339920937902
 31
0.0
  0
LINE
  8
9
  6
CONTINUOUS
 62
9
 10
4.50691351211062
 20
1.01339920937902
 30
0.0
 11
4.48144266526764
 21
0.970373217686765
 31
0.0
  0
LINE
  8
9
  6
CONTINUOUS
 62
9
 10
4.59203946946163
 20
1.37121079263301
 30
0.0
 11
4.70263106998315
 21
1.26987226149066
 31
0.0
  0
LINE
  8
9
  6
CONTINUOUS
 62
9
 10
4.70263106998315
 20
1.26987226149066
 30
0.0
 11
4.66885155960237
 21
1.30673612833117
 31
0.0
  0
LINE
  8
9
  6
CONTINUOUS
 62
9
 10
4.79668841945519
 20
1.11036996372262
 30
0.0
 11
4.85134739097685
 21
1.17001976400392
 31
0.0
  0
LINE
  8
9
  6
CONTINUOUS
 62
9
 10
4.85134739097685
 20
1.17001976400392
 30
0.0
 11
4.81448352413635
 21
1.13624025362313
 31
0.0
  0
LINE
  8
9
  6
CONTINUOUS
 62
9
 10
5.00630448516601
 20
1.41437996617141
 30
0.0
 11
5.02381564290785
 21
1.4933676943065
 31
0.0
  0
LINE
  8
9
  6
CONTINUOUS
 62
9
 10
5.02381564290785
 20
1.4933676943065
 30
0.0
 11
5.00878035293264
 21
1.44568184676909
 31
0.0
  0
LINE
  8
9
  6
CONTINUOUS
 62
9
 10
5.05055621200667
 20
1.7809807741692
 30
0.0
 11
5.02622745539323
 21
1.85814173219233
 31
0.0
  0
LINE
  8
9
  6
CONTINUOUS
 62
9
 10
5.02622745539323
 20
1.85814173219233
 30
0.0
 11
5.03704943609014
 21
1.80932693183633
 31
0.0
  0
LINE
  8
9
  6
CONTINUOUS
 62
9
 10
4.91930761167245
 20
2.12611757006493
 30
0.0
 11
4.85965781139116
 21
2.18077654158659
 31
0.0
  0
LINE
  8
9
  6
CONTINUOUS
 62
9
 10
4.85965781139116
 20
2.18077654158659
 30
0.0
 11
4.89343732177194
 21
2.14391267474609
 31
0.0
  0
LINE
  8
9
  6
CONTINUOUS
 62
9
 10
4.64266299355438
 20
2.37066296814583
 30
0.0
 11
4.56367526541928
 21
2.38817412588767
 31
0.0
  0
LINE
  8
9
  6
CONTINUOUS
 62
9
 10
4.56367526541928
 20
2.38817412588767
 30
0.0
 11
4.61136111295669
 21
2.37313883591245
 31
0.0
  0
LINE
  8
9
  6
CONTINUOUS
 62
9
 10
4.28373314894558
 20
2.45844727475526
 30
0.0
 11
4.20932837717564
 21
2.42667257130635
 31
0.0
  0
LINE
  8
9
  6
CONTINUOUS
 62
9
 10
4.20932837717564
 20
2.42667257130635
 30
0.0
 11
4.25684738132533
 21
2.44222712834348
 31
0.0
  0
LINE
  8
9
  6
CONTINUOUS
 62
9
 10
3.92644144965521
 20
2.37025198248086
 30
0.0
 11
3.85820643307467
 21
2.3267814826717
 31
0.0
  0
LINE
  8
9
  6
CONTINUOUS
 62
9
 10
3.85820643307467
 20
2.3267814826717
 30
0.0
 11
3.90255697473359
 21
2.34986891333345
 31
0.0
  0
LINE
  8
9
  6
CONTINUOUS
 62
9
 10
3.65450936894861
 20
2.12685758976282
 30
0.0
 11
3.57848305651834
 21
2.15452890450678
 31
0.0
  0
LINE
  8
9
  6
CONTINUOUS
 62
9
 10
3.57848305651834
 20
2.15452890450678
 30
0.0
 11
3.62379844587059
 21
2.13339799142063
 31
0.0
  0
LINE
  8
9
  6
CONTINUOUS
 62
9
 10
3.31665723593032
 20
2.23900076283685
 30
0.0
 11
3.44970886090768
 21
2.1697384708528
 31
0.0
  0
LINE
  8
9
  6
CONTINUOUS
 62
9
 10
3.44970886090768
 20
2.1697384708528
 30
0.0
 11
3.40753928861679
 21
2.19660345126976
 31
0.0
  0
LINE
  8
9
  6
CONTINUOUS
 62
9
 10
1.85982652684635
 20
2.45528905554647
 30
0.0
 11
1.7812395995492
 21
2.43605895675846
 31
0.0
  0
LINE
  8
9
  6
CONTINUOUS
 62
9
 10
1.7812395995492
 20
2.43605895675846
 30
0.0
 11
1.83065767507074
 21
2.44366512607997
 31
0.0
  0
LINE
  8
9
  6
CONTINUOUS
 62
9
 10
1.50028834185058
 20
2.36405950755376
 30
0.0
 11
1.49852339741019
 21
2.28317324906367
 31
0.0
  0
LINE
  8
9
  6
CONTINUOUS
 62
9
 10
1.49852339741019
 20
2.28317324906367
 30
0.0
 11
1.50396674115376
 21
2.33287606597468
 31
0.0
  0
LINE
  8
9
  6
CONTINUOUS
 62
9
 10
1.48220983454087
 20
1.91013960224263
 30
0.0
 11
1.34915820956413
 21
1.97940189422789
 31
0.0
  0
LINE
  8
9
  6
CONTINUOUS
 62
9
 10
1.34915820956413
 20
1.97940189422789
 30
0.0
 11
1.39132778185478
 21
1.95253691381055
 31
0.0
  0
LINE
  8
9
  6
CONTINUOUS
 62
9
 10
1.22534348282907
 20
2.12107800772577
 30
0.0
 11
1.20783232508279
 21
2.04209027959166
 31
0.0
  0
LINE
  8
9
  6
CONTINUOUS
 62
9
 10
1.20783232508279
 20
2.04209027959166
 30
0.0
 11
1.22286761506068
 21
2.08977612712822
 31
0.0
  0
LINE
  8
9
  6
CONTINUOUS
 62
9
 10
1.09502530070331
 20
1.7759002984498
 30
0.0
 11
1.11425539947001
 21
1.69731337114744
 31
0.0
  0
LINE
  8
9
  6
CONTINUOUS
 62
9
 10
1.11425539947001
 20
1.69731337114744
 30
0.0
 11
1.10664923016191
 21
1.74673144667104
 31
0.0
  0
LINE
  8
9
  6
CONTINUOUS
 62
9
 10
1.13987158852966
 20
1.40986560726574
 30
0.0
 11
1.18771179827102
 21
1.3446197938115
 31
0.0
  0
LINE
  8
9
  6
CONTINUOUS
 62
9
 10
1.18771179827102
 20
1.3446197938115
 30
0.0
 11
1.16177313536187
 21
1.38736538734446
 31
0.0
  0
LINE
  8
9
  6
CONTINUOUS
 62
9
 10
1.35022093888185
 20
1.10619234114623
 30
0.0
 11
1.42624725131149
 21
1.07852102640056
 31
0.0
  0
LINE
  8
9
  6
CONTINUOUS
 62
9
 10
1.42624725131149
 20
1.07852102640056
 30
0.0
 11
1.38093186195973
 21
1.09965193948773
 31
0.0
  0
LINE
  8
9
  6
CONTINUOUS
 62
9
 10
1.67670997038145
 20
0.93519168628281
 30
0.0
 11
1.75759622887173
 21
0.933426741851192
 31
0.0
  0
LINE
  8
9
  6
CONTINUOUS
 62
9
 10
1.75759622887173
 20
0.933426741851192
 30
0.0
 11
1.70789341196013
 21
0.938870085589365
 31
0.0
  0
LINE
  8
9
  6
CONTINUOUS
 62
9
 10
2.04573877835855
 20
0.935487267679163
 30
0.0
 11
2.1190640737241
 21
0.969679414452343
 31
0.0
  0
LINE
  8
9
  6
CONTINUOUS
 62
9
 10
2.1190640737241
 20
0.969679414452343
 30
0.0
 11
2.07207944268629
 21
0.952578407281982
 31
0.0
  0
LINE
  8
9
  6
CONTINUOUS
 62
9
 10
2.37282940710726
 20
1.10788655481379
 30
0.0
 11
2.407819358645
 21
1.18083451662761
 31
0.0
  0
LINE
  8
9
  6
CONTINUOUS
 62
9
 10
2.407819358645
 20
1.18083451662761
 30
0.0
 11
2.38234851180179
 21
1.1378085249355
 31
0.0
  0
LINE
  8
9
  6
CONTINUOUS
 62
9
 10
2.58194764390885
 20
1.41185176399948
 30
0.0
 11
2.58106511918501
 21
1.4927524623371
 31
0.0
  0
LINE
  8
9
  6
CONTINUOUS
 62
9
 10
2.58106511918501
 20
1.4927524623371
 30
0.0
 11
2.57725092045896
 21
1.44289815572194
 31
0.0
  0
LINE
  8
9
  6
CONTINUOUS
 62
9
 10
2.62623419201552
 20
1.77685673636766
 30
0.0
 11
2.62006239800853
 21
1.8575265002209
 31
0.0
  0
LINE
  8
9
  6
CONTINUOUS
 62
9
 10
2.62006239800853
 20
1.8575265002209
 30
0.0
 11
2.61951699343802
 21
1.80752947497085
 31
0.0
  0
LINE
  8
9
  6
CONTINUOUS
 62
9
 10
2.49430546478613
 20
2.12321608102574
 30
0.0
 11
2.42513838233535
 21
2.16518769698999
 31
0.0
  0
LINE
  8
9
  6
CONTINUOUS
 62
9
 10
2.42513838233535
 20
2.16518769698999
 30
0.0
 11
2.4654606125492
 21
2.13562221457245
 31
0.0
  0
LINE
  8
9
  6
CONTINUOUS
 62
9
 10
2.22051484093403
 20
2.36230986542403
 30
0.0
 11
2.25550479247177
 21
2.43525782723785
 31
0.0
  0
LINE
  8
9
  6
CONTINUOUS
 62
9
 10
2.25550479247177
 20
2.43525782723785
 30
0.0
 11
2.23003394562857
 21
2.39223183554573
 31
0.0
  0
LINE
  8
9
  6
CONTINUOUS
 62
9
 10
2.41213629117243
 20
2.65251739294071
 30
0.0
 11
2.34287399920061
 21
2.51946576795697
 31
0.0
  0
LINE
  8
9
  6
CONTINUOUS
 62
9
 10
2.34287399920061
 20
2.51946576795697
 30
0.0
 11
2.36973897961369
 21
2.56163534025033
 31
0.0
  0
LINE
  8
9
  6
CONTINUOUS
 62
9
 10
3.8082650815716
 20
3.84372476115379
 30
0.0
 11
3.88429139400124
 21
3.81605344640812
 31
0.0
  0
LINE
  8
9
  6
CONTINUOUS
 62
9
 10
3.88429139400124
 20
3.81605344640812
 30
0.0
 11
3.83897600464947
 21
3.83718435949529
 31
0.0
  0
LINE
  8
9
  6
CONTINUOUS
 62
9
 10
4.1347541130712
 20
3.67272410629037
 30
0.0
 11
4.21564037156148
 21
3.67095916185876
 31
0.0
  0
LINE
  8
9
  6
CONTINUOUS
 62
9
 10
4.21564037156148
 20
3.67095916185876
 30
0.0
 11
4.16593755464988
 21
3.67640250559693
 31
0.0
  0
LINE
  8
9
  6
CONTINUOUS
 62
9
 10
4.50565115419569
 20
3.67497126950507
 30
0.0
 11
4.53332246894261
 21
3.75099758193426
 31
0.0
  0
LINE
  8
9
  6
CONTINUOUS
 62
9
 10
4.53332246894261
 20
3.75099758193426
 30
0.0
 11
4.5121915558547
 21
3.70568219258284
 31
0.0
  0
LINE
  8
9
  6
CONTINUOUS
 62
9
 10
4.62562582159712
 20
4.10541451003142
 30
0.0
 11
4.73621742211864
 21
4.00407597888907
 31
0.0
  0
LINE
  8
9
  6
CONTINUOUS
 62
9
 10
4.73621742211864
 20
4.00407597888907
 30
0.0
 11
4.70243791173785
 21
4.04093984572957
 31
0.0
  0
LINE
  8
9
  6
CONTINUOUS
 62
9
 10
4.83087354979701
 20
3.84541897482136
 30
0.0
 11
4.86586350133475
 21
3.91836693663518
 31
0.0
  0
LINE
  8
9
  6
CONTINUOUS
 62
9
 10
4.86586350133475
 20
3.91836693663518
 30
0.0
 11
4.84039265449154
 21
3.87534094494306
 31
0.0
  0
LINE
  8
9
  6
CONTINUOUS
 62
9
 10
5.0399917865986
 20
4.14938418400704
 30
0.0
 11
5.03910926187476
 21
4.23028488234467
 31
0.0
  0
LINE
  8
9
  6
CONTINUOUS
 62
9
 10
5.03910926187476
 20
4.23028488234467
 30
0.0
 11
5.03529506314871
 21
4.18043057572951
 31
0.0
  0
LINE
  8
9
  6
CONTINUOUS
 62
9
 10
5.08427833470527
 20
4.51438915637522
 30
0.0
 11
5.07810654069827
 21
4.59505892022847
 31
0.0
  0
LINE
  8
9
  6
CONTINUOUS
 62
9
 10
5.07810654069827
 20
4.59505892022847
 30
0.0
 11
5.07756113612776
 21
4.54506189497842
 31
0.0
  0
LINE
  8
9
  6
CONTINUOUS
 62
9
 10
4.95289396380794
 20
4.86032128746334
 30
0.0
 11
4.89324416352665
 21
4.914980258985
 31
0.0
  0
LINE
  8
9
  6
CONTINUOUS
 62
9
 10
4.89324416352665
 20
4.914980258985
 30
0.0
 11
4.92702367390743
 21
4.87811639214449
 31
0.0
  0
LINE
  8
9
  6
CONTINUOUS
 62
9
 10
4.67602329967347
 20
5.10491421791132
 30
0.0
 11
4.59605940581449
 21
5.11722183832771
 31
0.0
  0
LINE
  8
9
  6
CONTINUOUS
 62
9
 10
4.59605940581449
 20
5.11722183832771
 30
0.0
 11
4.64462650930541
 21
5.10533754371246
 31
0.0
  0
LINE
  8
9
  6
CONTINUOUS
 62
9
 10
4.31809769867347
 20
5.19286406543824
 30
0.0
 11
4.23842132338365
 21
5.17881497073146
 31
0.0
  0
LINE
  8
9
  6
CONTINUOUS
 62
9
 10
4.23842132338365
 20
5.17881497073146
 30
0.0
 11
4.28823105828727
 21
5.18317275787984
 31
0.0
  0
LINE
  8
9
  6
CONTINUOUS
 62
9
 10
3.95915496198822
 20
5.10370692480454
 30
0.0
 11
3.90851430311257
 21
5.04060997154969
 31
0.0
  0
LINE
  8
9
  6
CONTINUOUS
 62
9
 10
3.90851430311257
 20
5.04060997154969
 30
0.0
 11
3.94308995590401
 21
5.07672816965046
 31
0.0
  0
LINE
  8
9
  6
CONTINUOUS
 62
9
 10
3.68338762551882
 20
4.85861042773334
 30
0.0
 11
3.66587646777254
 21
4.77962269959922
 31
0.0
  0
LINE
  8
9
  6
CONTINUOUS
 62
9
 10
3.66587646777254
 20
4.77962269959922
 30
0.0
 11
3.68091175775043
 21
4.82730854713579
 31
0.0
  0
LINE
  8
9
  6
CONTINUOUS
 62
9
 10
3.55306944339306
 20
4.51343271845737
 30
0.0
 11
3.57229954215976
 21
4.434845791155
 31
0.0
  0
LINE
  8
9
  6
CONTINUOUS
 62
9
 10
3.57229954215976
 20
4.434845791155
 30
0.0
 11
3.56469337285165
 21
4.48426386667861
 31
0.0
  0
LINE
  8
9
  6
CONTINUOUS
 62
9
 10
3.60096121850494
 20
4.15294921756847
 30
0.0
 11
3.5200749600147
 21
4.1547141620019
 31
0.0
  0
LINE
  8
9
  6
CONTINUOUS
 62
9
 10
3.5200749600147
 20
4.1547141620019
 30
0.0
 11
3.56977777692617
 21
4.14927081826261
 31
0.0
  0
LINE
  8
9
  6
CONTINUOUS
 62
9
 10
3.24387702668041
 20
4.12690456221022
 30
0.0
 11
3.3869345692887
 21
4.17201043214838
 31
0.0
  0
LINE
  8
9
  6
CONTINUOUS
 62
9
 10
3.3869345692887
 20
4.17201043214838
 30
0.0
 11
3.33811976893365
 21
4.1611884514472
 31
0.0
  0
LINE
  8
9
  6
CONTINUOUS
 62
9
 10
1.42358699364244
 20
4.44126928710272
 30
0.0
 11
1.27415778892784
 21
4.45434264850526
 31
0.0
  0
LINE
  8
9
  6
CONTINUOUS
 62
9
 10
1.27415778892784
 20
4.45434264850526
 30
0.0
 11
1.32339817657901
 21
4.44566023962508
 31
0.0
  0
LINE
  8
9
  6
CONTINUOUS
 62
9
 10
1.09400865642719
 20
4.46972124996412
 30
0.0
 11
1.09753770528687
 21
4.38889274227314
 31
0.0
  0
LINE
  8
9
  6
CONTINUOUS
 62
9
 10
1.09753770528687
 20
4.38889274227314
 30
0.0
 11
1.09971867465513
 21
4.43884515335224
 31
0.0
  0
LINE
  8
9
  6
CONTINUOUS
 62
9
 10
1.13881154848952
 20
4.10319300424434
 30
0.0
 11
1.18228204829868
 21
4.03495798766381
 31
0.0
  0
LINE
  8
9
  6
CONTINUOUS
 62
9
 10
1.18228204829868
 20
4.03495798766381
 30
0.0
 11
1.15919461763693
 21
4.07930852932272
 31
0.0
  0
LINE
  8
9
  6
CONTINUOUS
 62
9
 10
1.34886865614497
 20
3.79952142518251
 30
0.0
 11
1.42063272158518
 21
3.7621634173007
 31
0.0
  0
LINE
  8
9
  6
CONTINUOUS
 62
9
 10
1.42063272158518
 20
3.7621634173007
 30
0.0
 11
1.37846314929453
 21
3.78902839771804
 31
0.0
  0
LINE
  8
9
  6
CONTINUOUS
 62
9
 10
1.6750911253535
 20
3.62842343377539
 30
0.0
 11
1.7540788534886
 21
3.61091227603355
 31
0.0
  0
LINE
  8
9
  6
CONTINUOUS
 62
9
 10
1.7540788534886
 20
3.61091227603355
 30
0.0
 11
1.70639300595119
 21
3.62594756600876
 31
0.0
  0
LINE
  8
9
  6
CONTINUOUS
 62
9
 10
2.04469849170618
 20
3.62857643031202
 30
0.0
 11
2.11910326347729
 21
3.66035113375819
 31
0.0
  0
LINE
  8
9
  6
CONTINUOUS
 62
9
 10
2.11910326347729
 20
3.66035113375819
 30
0.0
 11
2.07158425932703
 21
3.6447965767228
 31
0.0
  0
LINE
  8
9
  6
CONTINUOUS
 62
9
 10
2.37129681706986
 20
3.80017520896187
 30
0.0
 11
2.42595578859152
 21
3.85982500924316
 31
0.0
  0
LINE
  8
9
  6
CONTINUOUS
 62
9
 10
2.42595578859152
 20
3.85982500924316
 30
0.0
 11
2.38909192175102
 21
3.82604549886237
 31
0.0
  0
LINE
  8
9
  6
CONTINUOUS
 62
9
 10
2.58091288278068
 20
4.10418521141065
 30
0.0
 11
2.59842404052252
 21
4.18317293954574
 31
0.0
  0
LINE
  8
9
  6
CONTINUOUS
 62
9
 10
2.59842404052252
 20
4.18317293954574
 30
0.0
 11
2.58338875054731
 21
4.13548709200833
 31
0.0
  0
LINE
  8
9
  6
CONTINUOUS
 62
9
 10
2.62516460962134
 20
4.47078601940844
 30
0.0
 11
2.6008358530079
 21
4.54794697743157
 31
0.0
  0
LINE
  8
9
  6
CONTINUOUS
 62
9
 10
2.6008358530079
 20
4.54794697743157
 30
0.0
 11
2.61165783370481
 21
4.49913217707558
 31
0.0
  0
LINE
  8
9
  6
CONTINUOUS
 62
9
 10
2.49391600928712
 20
4.81592281530417
 30
0.0
 11
2.43426620900583
 21
4.87058178682584
 31
0.0
  0
LINE
  8
9
  6
CONTINUOUS
 62
9
 10
2.43426620900583
 20
4.87058178682584
 30
0.0
 11
2.46804571938661
 21
4.83371791998533
 31
0.0
  0
LINE
  8
9
  6
CONTINUOUS
 62
9
 10
2.21727139116905
 20
5.06046821338507
 30
0.0
 11
2.13828366303395
 21
5.07797937112691
 31
0.0
  0
LINE
  8
9
  6
CONTINUOUS
 62
9
 10
2.13828366303395
 20
5.07797937112691
 30
0.0
 11
2.18596951057136
 21
5.0629440811517
 31
0.0
  0
LINE
  8
9
  6
CONTINUOUS
 62
9
 10
1.85834154656025
 20
5.1482525199945
 30
0.0
 11
1.78393677479031
 21
5.11647781654559
 31
0.0
  0
LINE
  8
9
  6
CONTINUOUS
 62
9
 10
1.78393677479031
 20
5.11647781654559
 30
0.0
 11
1.83145577894
 21
5.13203237358273
 31
0.0
  0
LINE
  8
9
  6
CONTINUOUS
 62
9
 10
1.50033119470859
 20
5.0594804480608
 30
0.0
 11
1.44567222318693
 21
4.99983064777951
 31
0.0
  0
LINE
  8
9
  6
CONTINUOUS
 62
9
 10
1.44567222318693
 20
4.99983064777951
 30
0.0
 11
1.48253609002744
 21
5.03361015816029
 31
0.0
  0
LINE
  8
9
  6
CONTINUOUS
 62
9
 10
1.2307299162533
 20
4.81539761187259
 30
0.0
 11
1.18288970651327
 21
4.88064342532781
 31
0.0
  0
LINE
  8
9
  6
CONTINUOUS
 62
9
 10
1.18288970651327
 20
4.88064342532781
 30
0.0
 11
1.20882836942154
 21
4.83789783179431
 31
0.0
  0
LINE
  8
9
  6
CONTINUOUS
 62
9
 10
1.06701330578026
 20
5.16065059916412
 30
0.0
 11
1.17760490630378
 21
5.05931206802395
 31
0.0
  0
LINE
  8
9
  6
CONTINUOUS
 62
9
 10
1.17760490630378
 20
5.05931206802395
 30
0.0
 11
1.14382539592227
 21
5.09617593486379
 31
0.0
  0
ENDSEC
  0
EOF
